<svg width="82" height="32" viewBox="0 0 82 32" fill="none" xmlns="http://www.w3.org/2000/svg">
<path d="M8.91672 0C4.00688 0 0 3.95853 0 8.80913C0 13.6597 4.00688 17.6183 8.91672 17.6183C13.883 17.6183 17.8334 13.6597 17.8334 8.80913C17.8334 3.95853 13.883 0 8.91672 0ZM8.91672 13.5482C6.26428 13.5482 4.11975 11.4296 4.11975 8.80913C4.11975 6.1887 6.26428 4.07004 8.91672 4.07004C11.5692 4.07004 13.7137 6.1887 13.7137 8.80913C13.7137 11.4296 11.5692 13.5482 8.91672 13.5482ZM50.0578 0C43.1163 0 37.5292 3.95853 37.5292 8.80913C37.5292 13.6597 43.1163 17.6183 50.0578 17.6183C56.9993 17.6183 62.5864 13.6597 62.5864 8.80913C62.5864 3.95853 56.9429 0 50.0578 0ZM50.0578 13.5482C45.2608 13.5482 41.7054 11.0393 41.7054 8.86489C41.7054 6.69048 45.2608 4.18155 50.0578 4.18155C54.8548 4.18155 58.4102 6.69048 58.4102 8.86489C58.4102 11.0393 54.7983 13.5482 50.0578 13.5482ZM79.9119 0.390278C78.7832 0.390278 77.8238 1.3381 77.8238 2.45318V9.36667L66.5368 0.501786C66.1418 0.167262 65.5774 0.446032 65.5774 0.947818V15.1651C65.5774 16.2802 66.5368 17.228 67.6655 17.228C68.7942 17.228 69.7536 16.2802 69.7536 15.1651V8.30735L81.0406 17.1722C81.4356 17.5068 82 17.228 82 16.7262V2.45318C82 1.3381 81.0406 0.390278 79.9119 0.390278ZM34.256 13.1579H27.1452L36.1748 1.3381C36.457 0.947818 36.1748 0.390278 35.7233 0.390278H22.6304C21.5017 0.390278 20.5423 1.3381 20.5423 2.45318C20.5423 3.56826 21.5017 4.51608 22.6304 4.51608H28.5561L19.4701 16.3359C19.1879 16.7262 19.4701 17.2837 19.978 17.2837H34.256C35.3847 17.2837 36.3441 16.3359 36.3441 15.2208C36.3441 14.1058 35.3847 13.1579 34.256 13.1579Z" fill="white"/>
<path d="M33.987 25.3085C32.86 25.3085 32.1482 25.9323 31.7923 26.8963V25.5353H30.3688V31.8298H31.7923V29.0512C31.7923 27.5768 32.5041 26.953 33.8683 26.953H34.1056V25.3652H33.987V25.3085ZM25.3864 25.3085C23.2511 25.3085 22.0055 26.7829 22.0055 28.6542C22.0055 30.639 23.3697 31.9999 25.4457 31.9999C27.0472 31.9999 27.9369 31.1493 28.4114 30.5256L27.4031 29.6182C27.0472 30.0152 26.4541 30.6957 25.3864 30.6957C24.2595 30.6957 23.4291 29.9585 23.3697 28.8243H28.4708V28.5975C28.5301 26.6127 27.4031 25.3085 25.3864 25.3085ZM23.4884 27.917C23.6663 27.0097 24.3188 26.556 25.2678 26.556C26.2761 26.556 26.9286 27.0664 26.9879 27.917H23.4884ZM9.84614 25.3085C7.71083 25.3085 6.46523 26.7829 6.46523 28.6542C6.46523 30.639 7.82946 31.9999 9.90545 31.9999C11.5069 31.9999 12.3966 31.1493 12.8712 30.5256L11.8628 29.6182C11.5069 30.0152 10.9138 30.6957 9.84614 30.6957C8.71917 30.6957 7.88877 29.9585 7.82946 28.8243H12.9305V28.5975C12.9898 26.6127 11.8628 25.3085 9.84614 25.3085ZM7.94809 27.917C8.12603 27.0097 8.77848 26.556 9.72751 26.556C10.7358 26.556 11.3883 27.0664 11.4476 27.917H7.94809ZM3.85542 28.314L2.60982 27.7469C2.01668 27.4634 1.83874 27.2932 1.83874 27.0097C1.83874 26.7262 2.01668 26.556 2.66913 26.556C3.32159 26.556 3.91473 26.7829 4.44856 26.953L5.0417 25.8188C4.32993 25.5353 3.49953 25.3085 2.78776 25.3085C1.36422 25.3085 0.474513 25.9323 0.474513 27.0664C0.474513 27.8036 0.830397 28.4274 1.83874 28.881L3.02502 29.4481C3.55884 29.7317 3.73679 29.9018 3.73679 30.1286C3.73679 30.5256 3.3809 30.6957 2.72845 30.6957C1.95736 30.6957 1.2456 30.4121 0.652455 30.0719L0 31.2627C0.711769 31.7731 1.66079 31.9999 2.60982 31.9999C4.15199 31.9999 5.16032 31.3762 5.16032 30.0719C5.21964 29.278 4.74513 28.7109 3.85542 28.314ZM14.8878 31.8298H16.3114V22.303H14.8878V31.8298ZM18.7432 31.8298H20.1668V22.303H18.7432V31.8298Z" fill="white"/>
</svg>
