<svg width="204" height="28" viewBox="0 0 204 28" fill="none" xmlns="http://www.w3.org/2000/svg">
<g clip-path="url(#clip0)">
<path d="M14.245 0C6.40124 0 0 6.38495 0 14.2088C0 22.0326 6.40124 28.4175 14.245 28.4175C22.1789 28.4175 28.49 22.0326 28.49 14.2088C28.49 6.38495 22.1789 0 14.245 0ZM14.245 21.8527C10.0076 21.8527 6.58156 18.4354 6.58156 14.2088C6.58156 9.98211 10.0076 6.56481 14.245 6.56481C18.4824 6.56481 21.9085 9.98211 21.9085 14.2088C21.9085 18.4354 18.4824 21.8527 14.245 21.8527ZM79.9704 0C68.8809 0 59.9553 6.38495 59.9553 14.2088C59.9553 22.0326 68.8809 28.4175 79.9704 28.4175C91.0599 28.4175 99.9855 22.0326 99.9855 14.2088C99.9855 6.38495 90.9697 0 79.9704 0ZM79.9704 21.8527C72.3069 21.8527 66.627 17.8059 66.627 14.2987C66.627 10.7915 72.3069 6.74467 79.9704 6.74467C87.6339 6.74467 93.3138 10.7915 93.3138 14.2987C93.3138 17.8059 87.5437 21.8527 79.9704 21.8527ZM127.664 0.629502C125.861 0.629502 124.328 2.15829 124.328 3.95687V15.1081L106.297 0.80936C105.666 0.269787 104.764 0.719431 104.764 1.52879V24.4607C104.764 26.2592 106.297 27.788 108.1 27.788C109.903 27.788 111.436 26.2592 111.436 24.4607V13.3994L129.467 27.6981C130.098 28.2377 131 27.788 131 26.9787V3.95687C131 2.15829 129.467 0.629502 127.664 0.629502ZM54.7261 21.2232H43.3661L57.7915 2.15829C58.2423 1.52879 57.7915 0.629502 57.0702 0.629502H36.1535C34.3503 0.629502 32.8176 2.15829 32.8176 3.95687C32.8176 5.75545 34.3503 7.28424 36.1535 7.28424H45.6201L31.1046 26.3492C30.6538 26.9787 31.1046 27.878 31.916 27.878H54.7261C56.5292 27.878 58.0619 26.3492 58.0619 24.5506C58.0619 22.752 56.5292 21.2232 54.7261 21.2232Z" fill="white"/>
</g>
<path d="M203.788 15.5789C201.772 15.5789 200.499 16.7368 199.863 18.5263V16H197.317V27.6842H199.863V22.5263C199.863 19.7895 201.136 18.6316 203.576 18.6316H204V15.6842H203.788V15.5789ZM188.405 15.5789C184.586 15.5789 182.358 18.3158 182.358 21.7895C182.358 25.4737 184.798 28 188.511 28C191.376 28 192.967 26.4211 193.816 25.2632L192.012 23.5789C191.376 24.3158 190.315 25.5789 188.405 25.5789C186.39 25.5789 184.904 24.2105 184.798 22.1053H193.922V21.6842C194.028 18 192.012 15.5789 188.405 15.5789ZM185.01 20.4211C185.329 18.7368 186.496 17.8947 188.193 17.8947C189.997 17.8947 191.163 18.8421 191.27 20.4211H185.01ZM160.61 15.5789C156.791 15.5789 154.563 18.3158 154.563 21.7895C154.563 25.4737 157.003 28 160.717 28C163.581 28 165.172 26.4211 166.021 25.2632L164.217 23.5789C163.581 24.3158 162.52 25.5789 160.61 25.5789C158.595 25.5789 157.11 24.2105 157.003 22.1053H166.127V21.6842C166.233 18 164.217 15.5789 160.61 15.5789ZM157.216 20.4211C157.534 18.7368 158.701 17.8947 160.398 17.8947C162.202 17.8947 163.369 18.8421 163.475 20.4211H157.216ZM149.896 21.1579L147.668 20.1053C146.607 19.5789 146.289 19.2632 146.289 18.7368C146.289 18.2105 146.607 17.8947 147.774 17.8947C148.941 17.8947 150.002 18.3158 150.957 18.6316L152.017 16.5263C150.744 16 149.259 15.5789 147.986 15.5789C145.44 15.5789 143.849 16.7368 143.849 18.8421C143.849 20.2105 144.485 21.3684 146.289 22.2105L148.41 23.2632C149.365 23.7895 149.683 24.1053 149.683 24.5263C149.683 25.2632 149.047 25.5789 147.88 25.5789C146.501 25.5789 145.228 25.0526 144.167 24.4211L143 26.6316C144.273 27.5789 145.97 28 147.668 28C150.426 28 152.23 26.8421 152.23 24.4211C152.336 22.9474 151.487 21.8947 149.896 21.1579ZM169.628 27.6842H172.174V10H169.628V27.6842ZM176.523 27.6842H179.07V10H176.523V27.6842Z" fill="white"/>
<defs>
<clipPath id="clip0">
<rect width="131" height="28" fill="white"/>
</clipPath>
</defs>
</svg>
