<svg width="24" height="24" viewBox="0 0 24 24" fill="none" xmlns="http://www.w3.org/2000/svg">
<path d="M21 13C21.5523 13 22 12.5523 22 12C22 11.4477 21.5523 11 21 11L21 13ZM21 11L4 11L4 13L21 13L21 11Z" fill="#001A34"/>
<path d="M8.29289 18.7071C8.68342 19.0976 9.31658 19.0976 9.70711 18.7071C10.0976 18.3166 10.0976 17.6834 9.70711 17.2929L8.29289 18.7071ZM3 12L2.29289 11.2929L1.58579 12L2.29289 12.7071L3 12ZM9.70711 6.70711C10.0976 6.31658 10.0976 5.68342 9.70711 5.29289C9.31658 4.90237 8.68342 4.90237 8.29289 5.29289L9.70711 6.70711ZM9.70711 17.2929L3.70711 11.2929L2.29289 12.7071L8.29289 18.7071L9.70711 17.2929ZM3.70711 12.7071L9.70711 6.70711L8.29289 5.29289L2.29289 11.2929L3.70711 12.7071Z" fill="#001A34"/>
</svg>
