<svg width="12" height="14" viewBox="0 0 12 14" fill="none" xmlns="http://www.w3.org/2000/svg">
<path d="M11.7075 7.293C12.0975 7.683 12.0975 8.317 11.7075 8.707L6.7075 13.707C6.3175 14.097 5.6835 14.097 5.2935 13.707L0.2935 8.707C-0.0965008 8.317 -0.0965007 7.683 0.2935 7.293C0.6835 6.903 1.3175 6.903 1.7075 7.293L5.0005 10.585L5.0005 1C5.0005 0.448 5.4485 -2.86375e-07 6.0005 -2.62246e-07C6.5135 -2.39823e-07 6.9365 0.386 6.9935 0.883L7.0005 1L7.0005 10.585L10.2935 7.293C10.6535 6.933 11.2215 6.905 11.6135 7.21L11.7075 7.293Z" fill="white"/>
</svg>
