<svg width="24" height="24" viewBox="0 0 24 24" fill="none" xmlns="http://www.w3.org/2000/svg">
<path d="M3 11C2.44772 11 2 11.4477 2 12C2 12.5523 2.44772 13 3 13V11ZM3 13H20V11H3V13Z" fill="#001A34"/>
<path d="M15.7071 5.29289C15.3166 4.90237 14.6834 4.90237 14.2929 5.29289C13.9024 5.68342 13.9024 6.31658 14.2929 6.70711L15.7071 5.29289ZM21 12L21.7071 12.7071L22.4142 12L21.7071 11.2929L21 12ZM14.2929 17.2929C13.9024 17.6834 13.9024 18.3166 14.2929 18.7071C14.6834 19.0976 15.3166 19.0976 15.7071 18.7071L14.2929 17.2929ZM14.2929 6.70711L20.2929 12.7071L21.7071 11.2929L15.7071 5.29289L14.2929 6.70711ZM20.2929 11.2929L14.2929 17.2929L15.7071 18.7071L21.7071 12.7071L20.2929 11.2929Z" fill="#001A34"/>
</svg>
