<svg width="20" height="14" viewBox="0 0 20 14" fill="none" xmlns="http://www.w3.org/2000/svg">
<path d="M18.8889 12C19.1836 12 19.4662 12.1054 19.6746 12.2929C19.8829 12.4804 20 12.7348 20 13C20 13.2652 19.8829 13.5196 19.6746 13.7071C19.4662 13.8946 19.1836 14 18.8889 14H1.11111C0.816426 14 0.533811 13.8946 0.325437 13.7071C0.117063 13.5196 0 13.2652 0 13C0 12.7348 0.117063 12.4804 0.325437 12.2929C0.533811 12.1054 0.816426 12 1.11111 12H18.8889ZM18.8889 6C19.1836 6 19.4662 6.10536 19.6746 6.29289C19.8829 6.48043 20 6.73478 20 7C20 7.26522 19.8829 7.51957 19.6746 7.70711C19.4662 7.89464 19.1836 8 18.8889 8H1.11111C0.816426 8 0.533811 7.89464 0.325437 7.70711C0.117063 7.51957 0 7.26522 0 7C0 6.73478 0.117063 6.48043 0.325437 6.29289C0.533811 6.10536 0.816426 6 1.11111 6H18.8889ZM18.8889 0C19.1836 0 19.4662 0.105357 19.6746 0.292893C19.8829 0.48043 20 0.734784 20 1C20 1.26522 19.8829 1.51957 19.6746 1.70711C19.4662 1.89464 19.1836 2 18.8889 2H1.11111C0.816426 2 0.533811 1.89464 0.325437 1.70711C0.117063 1.51957 0 1.26522 0 1C0 0.734784 0.117063 0.48043 0.325437 0.292893C0.533811 0.105357 0.816426 0 1.11111 0H18.8889Z" fill="#001A34"/>
</svg>
