<svg width="16" height="11" viewBox="0 0 16 11" fill="none" xmlns="http://www.w3.org/2000/svg">
<path d="M13.2936 1.29299L6.00057 8.58599L2.70757 5.29299C2.61532 5.19748 2.50498 5.1213 2.38297 5.06889C2.26097 5.01648 2.12975 4.98889 1.99697 4.98774C1.86419 4.98659 1.73251 5.01189 1.60962 5.06217C1.48672 5.11245 1.37507 5.1867 1.28117 5.28059C1.18728 5.37449 1.11303 5.48614 1.06275 5.60904C1.01247 5.73193 0.987165 5.86361 0.988319 5.99639C0.989473 6.12917 1.01706 6.26039 1.06947 6.38239C1.12188 6.5044 1.19806 6.61474 1.29357 6.70699L5.29357 10.707C5.38622 10.8002 5.49638 10.8741 5.61772 10.9246C5.73905 10.975 5.86916 11.001 6.00057 11.001C6.13198 11.001 6.26209 10.975 6.38342 10.9246C6.50476 10.8741 6.61492 10.8002 6.70757 10.707L14.7076 2.70699C14.8031 2.61474 14.8793 2.5044 14.9317 2.38239C14.9841 2.26039 15.0117 2.12917 15.0128 1.99639C15.014 1.86361 14.9887 1.73193 14.9384 1.60904C14.8881 1.48614 14.8139 1.37449 14.72 1.28059C14.6261 1.1867 14.5144 1.11245 14.3915 1.06217C14.2686 1.01189 14.1369 0.986585 14.0042 0.987739C13.8714 0.988893 13.7402 1.01648 13.6182 1.06889C13.4962 1.1213 13.3858 1.19748 13.2936 1.29299Z" fill="#000912"/>
</svg>
