<svg width="12" height="11" viewBox="0 0 12 11" fill="none" xmlns="http://www.w3.org/2000/svg">
<path d="M11.063 0.321451C11.2506 0.508988 11.3559 0.763342 11.3559 1.02856C11.3559 1.29377 11.2506 1.54813 11.063 1.73567L7.52749 5.2712L11.063 8.80673C11.2506 8.99427 11.3559 9.24862 11.3559 9.51384C11.3559 9.77906 11.2506 10.0334 11.063 10.2209C10.8755 10.4085 10.6211 10.5138 10.3559 10.5138C10.0907 10.5138 9.83635 10.4085 9.64882 10.2209L6.11328 6.68541L2.57775 10.2209C2.39021 10.4085 2.13586 10.5138 1.87064 10.5138C1.60542 10.5138 1.35107 10.4085 1.16353 10.2209C0.975998 10.0334 0.870641 9.77906 0.870641 9.51384C0.870641 9.24862 0.975997 8.99427 1.16353 8.80673L4.69907 5.2712L1.16353 1.73567C0.975998 1.54813 0.870641 1.29377 0.870641 1.02856C0.870641 0.763342 0.975998 0.508988 1.16353 0.321451C1.35107 0.133915 1.60542 0.0285583 1.87064 0.0285584C2.13586 0.0285585 2.39021 0.133915 2.57775 0.321451L6.11328 3.85699L9.64882 0.321451C9.83635 0.133915 10.0907 0.0285585 10.3559 0.0285584C10.6211 0.0285583 10.8755 0.133915 11.063 0.321451Z" fill="white"/>
</svg>
