<svg width="13" height="4" viewBox="0 0 13 4" fill="none" xmlns="http://www.w3.org/2000/svg">
<path d="M1.50586 0.5C1.90368 0.5 2.28522 0.658035 2.56652 0.93934C2.84782 1.22064 3.00586 1.60218 3.00586 2C3.00586 2.39783 2.84782 2.77936 2.56652 3.06066C2.28521 3.34197 1.90368 3.5 1.50586 3.5C1.10803 3.5 0.726503 3.34197 0.445199 3.06066C0.163894 2.77936 0.00585904 2.39782 0.00585911 2C0.00585918 1.60218 0.163895 1.22064 0.445199 0.93934C0.726504 0.658035 1.10803 0.5 1.50586 0.5ZM6.00586 0.500001C6.40368 0.500001 6.78522 0.658036 7.06652 0.939341C7.34782 1.22065 7.50586 1.60218 7.50586 2C7.50586 2.39783 7.34782 2.77936 7.06652 3.06066C6.78521 3.34197 6.40368 3.5 6.00586 3.5C5.60803 3.5 5.2265 3.34197 4.9452 3.06066C4.66389 2.77936 4.50586 2.39783 4.50586 2C4.50586 1.60218 4.66389 1.22065 4.9452 0.939341C5.2265 0.658036 5.60803 0.500001 6.00586 0.500001ZM10.5059 0.500002C10.9037 0.500002 11.2852 0.658037 11.5665 0.939342C11.8478 1.22065 12.0059 1.60218 12.0059 2C12.0059 2.39783 11.8478 2.77936 11.5665 3.06066C11.2852 3.34197 10.9037 3.5 10.5059 3.5C10.108 3.5 9.7265 3.34197 9.4452 3.06066C9.16389 2.77936 9.00586 2.39783 9.00586 2C9.00586 1.60218 9.16389 1.22065 9.4452 0.939341C9.7265 0.658037 10.108 0.500002 10.5059 0.500002Z" fill="white"/>
</svg>
