<svg width="22" height="22" viewBox="0 0 22 22" fill="none" xmlns="http://www.w3.org/2000/svg">
<path fill-rule="evenodd" clip-rule="evenodd" d="M19.547 15.5445C19.5 16.5675 19.329 17.1235 19.186 17.4935C18.995 17.9835 18.768 18.3335 18.401 18.7005C18.032 19.0685 17.683 19.2965 17.193 19.4865C16.822 19.6305 16.267 19.8015 15.243 19.8485C14.136 19.8985 13.804 19.9095 11 19.9095C8.196 19.9095 7.864 19.8985 6.757 19.8485C5.734 19.8015 5.178 19.6305 4.808 19.4865C4.318 19.2965 3.968 19.0685 3.6 18.7005C3.233 18.3335 3.005 17.9835 2.815 17.4935C2.671 17.1235 2.5 16.5675 2.453 15.5445C2.402 14.4375 2.392 14.1055 2.392 11.3015C2.392 8.49751 2.402 8.16551 2.453 7.05851C2.5 6.03451 2.671 5.47951 2.815 5.10851C3.005 4.61851 3.233 4.26951 3.6 3.90051C3.968 3.53351 4.318 3.30651 4.808 3.11551C5.178 2.97251 5.734 2.80151 6.757 2.75451C7.864 2.70351 8.196 2.69251 11 2.69251C13.804 2.69251 14.136 2.70351 15.243 2.75451C16.267 2.80151 16.822 2.97251 17.193 3.11551C17.683 3.30651 18.032 3.53351 18.401 3.90051C18.768 4.26951 18.995 4.61851 19.186 5.10851C19.329 5.47951 19.5 6.03451 19.547 7.05851C19.598 8.16551 19.609 8.49751 19.609 11.3015C19.609 14.1055 19.598 14.4375 19.547 15.5445ZM21.437 6.97251C21.386 5.85451 21.208 5.09151 20.949 4.42351C20.681 3.73251 20.321 3.14751 19.737 2.56451C19.154 1.98051 18.568 1.62051 17.878 1.35251C17.21 1.09351 16.447 0.915514 15.329 0.864514C14.209 0.813514 13.852 0.801514 11 0.801514C8.149 0.801514 7.791 0.813514 6.671 0.864514C5.553 0.915514 4.79 1.09351 4.122 1.35251C3.432 1.62051 2.846 1.98051 2.263 2.56451C1.679 3.14751 1.319 3.73251 1.052 4.42351C0.792 5.09151 0.614 5.85451 0.564 6.97251C0.512 8.09251 0.5 8.44951 0.5 11.3015C0.5 14.1525 0.512 14.5105 0.564 15.6305C0.614 16.7485 0.792 17.5115 1.052 18.1795C1.319 18.8695 1.679 19.4555 2.263 20.0385C2.846 20.6225 3.432 20.9815 4.122 21.2505C4.79 21.5095 5.553 21.6875 6.671 21.7375C7.791 21.7895 8.149 21.8015 11 21.8015C13.852 21.8015 14.209 21.7895 15.329 21.7375C16.447 21.6875 17.21 21.5095 17.878 21.2505C18.568 20.9815 19.154 20.6225 19.737 20.0385C20.321 19.4555 20.681 18.8695 20.949 18.1795C21.208 17.5115 21.386 16.7485 21.437 15.6305C21.488 14.5105 21.5 14.1525 21.5 11.3015C21.5 8.44951 21.488 8.09251 21.437 6.97251ZM16.605 4.43651C15.909 4.43651 15.345 5.00051 15.345 5.69651C15.345 6.39251 15.909 6.95651 16.605 6.95651C17.301 6.95651 17.865 6.39251 17.865 5.69651C17.865 5.00051 17.301 4.43651 16.605 4.43651ZM11 14.8015C9.068 14.8015 7.5 13.2335 7.5 11.3015C7.5 9.36751 9.068 7.80151 11 7.80151C12.933 7.80151 14.5 9.36751 14.5 11.3015C14.5 13.2335 12.933 14.8015 11 14.8015ZM11 5.90951C8.023 5.90951 5.609 8.32351 5.609 11.3015C5.609 14.2785 8.023 16.6925 11 16.6925C13.978 16.6925 16.392 14.2785 16.392 11.3015C16.392 8.32351 13.978 5.90951 11 5.90951Z" fill="white"/>
</svg>
