<svg width="14" height="15" viewBox="0 0 14 15" fill="none" xmlns="http://www.w3.org/2000/svg">
<path d="M7 0.30127C7.26522 0.30127 7.51957 0.406626 7.70711 0.594163C7.89464 0.781699 8 1.03605 8 1.30127V6.30127H13C13.2652 6.30127 13.5196 6.40663 13.7071 6.59416C13.8946 6.7817 14 7.03605 14 7.30127C14 7.56649 13.8946 7.82084 13.7071 8.00838C13.5196 8.19591 13.2652 8.30127 13 8.30127H8V13.3013C8 13.5665 7.89464 13.8208 7.70711 14.0084C7.51957 14.1959 7.26522 14.3013 7 14.3013C6.73478 14.3013 6.48043 14.1959 6.29289 14.0084C6.10536 13.8208 6 13.5665 6 13.3013V8.30127H1C0.734784 8.30127 0.48043 8.19591 0.292893 8.00838C0.105357 7.82084 0 7.56649 0 7.30127C0 7.03605 0.105357 6.7817 0.292893 6.59416C0.48043 6.40663 0.734784 6.30127 1 6.30127H6V1.30127C6 1.03605 6.10536 0.781699 6.29289 0.594163C6.48043 0.406626 6.73478 0.30127 7 0.30127Z" fill="white"/>
</svg>
