<svg width="20" height="16" viewBox="0 0 20 16" fill="none" xmlns="http://www.w3.org/2000/svg">
<path d="M20 2.07356C19.2664 2.37968 18.4803 2.57302 17.6419 2.66969C18.4978 2.20245 19.1441 1.46131 19.4585 0.575169C18.6725 1.01018 17.7817 1.31631 16.8559 1.49354C16.1048 0.768509 15.0393 0.30127 13.8515 0.30127C11.5808 0.30127 9.74672 1.993 9.74672 4.08752C9.74672 4.39364 9.78166 4.68365 9.85153 4.95755C6.44542 4.78032 3.40611 3.28194 1.39738 0.994073C1.04803 1.54187 0.838428 2.20245 0.838428 2.89525C0.838428 4.2003 1.55459 5.36035 2.65502 6.03704C1.99127 6.02093 1.34498 5.8437 0.803493 5.5698V5.61813C0.803493 7.45487 2.21834 8.98548 4.08734 9.32383C3.75546 9.40438 3.38865 9.45272 3.00437 9.45272C2.74236 9.45272 2.48035 9.43661 2.23581 9.38827C2.75983 10.8867 4.26201 11.9823 6.0786 12.0145C4.68122 13.0295 2.89956 13.6418 0.978166 13.6418C0.646288 13.6418 0.31441 13.6257 0 13.5773C1.81659 14.6568 3.96507 15.2852 6.28821 15.2852C13.8341 15.2852 17.9738 9.51717 17.9738 4.50643L17.9563 4.02307C18.7598 3.5075 19.4585 2.83081 20 2.07356Z" fill="white"/>
</svg>
