<svg width="24" height="14" viewBox="0 0 24 14" fill="none" xmlns="http://www.w3.org/2000/svg">
<path fill-rule="evenodd" clip-rule="evenodd" d="M20.7941 9.74173C18.9141 7.99773 19.1661 8.27973 21.4301 5.26273C22.8091 3.42473 23.3591 2.30273 23.1881 1.82173C23.0231 1.36373 22.0101 1.48473 22.0101 1.48473L18.6351 1.50673C18.6351 1.50673 18.3841 1.47173 18.1991 1.58273C18.0181 1.69173 17.9001 1.94473 17.9001 1.94473C17.9001 1.94473 17.3661 3.36673 16.6541 4.57673C15.1511 7.12873 14.5511 7.26273 14.3051 7.10373C13.7331 6.73473 13.8761 5.62173 13.8761 4.82973C13.8761 2.35573 14.2521 1.32573 13.1461 1.05773C12.7791 0.970733 12.5091 0.911733 11.5701 0.901733C10.3661 0.888733 9.3481 0.905733 8.7711 1.18773C8.3871 1.37673 8.0901 1.79573 8.2711 1.81873C8.4941 1.84873 8.9991 1.95573 9.2671 2.31973C9.6121 2.79073 9.6011 3.84673 9.6011 3.84673C9.6011 3.84673 9.7991 6.75873 9.1371 7.11973C8.6821 7.36773 8.0581 6.86173 6.7181 4.54673C6.0311 3.36073 5.5131 2.04973 5.5131 2.04973C5.5131 2.04973 5.4131 1.80473 5.2341 1.67373C5.0191 1.51373 4.7171 1.46473 4.7171 1.46473L1.5091 1.48473C1.5091 1.48473 1.0271 1.49873 0.851102 1.70773C0.693102 1.89373 0.838102 2.27973 0.838102 2.27973C0.838102 2.27973 3.3491 8.15373 6.1921 11.1137C8.7991 13.8287 11.7601 13.6497 11.7601 13.6497H13.1011C13.1011 13.6497 13.5061 13.6047 13.7131 13.3827C13.9031 13.1777 13.8981 12.7937 13.8981 12.7937C13.8981 12.7937 13.8711 10.9927 14.7061 10.7277C15.5301 10.4667 16.5881 12.4677 17.7091 13.2367C18.5571 13.8187 19.2001 13.6917 19.2001 13.6917L22.1981 13.6497C22.1981 13.6497 23.7661 13.5537 23.0231 12.3207C22.9621 12.2197 22.5891 11.4087 20.7941 9.74173Z" fill="white"/>
</svg>
